<svg width="282" height="56" viewBox="0 0 282 56" fill="none" xmlns="http://www.w3.org/2000/svg">
<path d="M33.4347 35H42.9517V32.7912H36.0696V28.821H42.4048V26.6122H36.0696V22.6634H42.8949V20.4545H33.4347V35ZM47.5717 24.0909H44.8445L48.0831 29.5455L44.7592 35H47.4865L49.7734 31.0724L52.0817 35H54.7876L51.4425 29.5455L54.7308 24.0909H52.0107L49.7734 28.1179L47.5717 24.0909ZM56.7195 39.0909H59.2905V33.2812H59.397C59.8018 34.0767 60.647 35.1918 62.522 35.1918C65.093 35.1918 67.0178 33.1534 67.0178 29.5597C67.0178 25.9233 65.0362 23.9489 62.5149 23.9489C60.5902 23.9489 59.7876 25.1065 59.397 25.8949H59.2479V24.0909H56.7195V39.0909ZM59.2408 29.5455C59.2408 27.429 60.1499 26.0582 61.8047 26.0582C63.5163 26.0582 64.397 27.5142 64.397 29.5455C64.397 31.5909 63.5021 33.0824 61.8047 33.0824C60.1641 33.0824 59.2408 31.6619 59.2408 29.5455ZM71.7905 20.4545H69.2195V35H71.7905V20.4545ZM79.1928 35.2131C82.3888 35.2131 84.4201 32.9616 84.4201 29.5881C84.4201 26.2074 82.3888 23.9489 79.1928 23.9489C75.9968 23.9489 73.9656 26.2074 73.9656 29.5881C73.9656 32.9616 75.9968 35.2131 79.1928 35.2131ZM79.207 33.1534C77.4386 33.1534 76.5721 31.5767 76.5721 29.581C76.5721 27.5852 77.4386 25.9872 79.207 25.9872C80.9471 25.9872 81.8136 27.5852 81.8136 29.581C81.8136 31.5767 80.9471 33.1534 79.207 33.1534ZM86.6023 35H89.1733V28.5866C89.1733 27.2017 90.2173 26.2216 91.6307 26.2216C92.0639 26.2216 92.6037 26.2997 92.8239 26.3707V24.0057C92.5895 23.9631 92.1847 23.9347 91.9006 23.9347C90.6506 23.9347 89.6065 24.6449 89.2088 25.9091H89.0952V24.0909H86.6023V35ZM98.9123 35.2131C101.455 35.2131 103.202 33.9702 103.657 32.0739L101.256 31.804C100.908 32.7273 100.056 33.2102 98.9478 33.2102C97.2859 33.2102 96.185 32.1165 96.1637 30.2486H103.763V29.4602C103.763 25.6321 101.462 23.9489 98.7773 23.9489C95.6523 23.9489 93.614 26.2429 93.614 29.6094C93.614 33.0327 95.6239 35.2131 98.9123 35.2131ZM96.1708 28.5156C96.2489 27.1236 97.2788 25.9517 98.8129 25.9517C100.29 25.9517 101.284 27.0312 101.299 28.5156H96.1708ZM111.013 35H116.901C120.232 35 121.865 33.3026 121.865 31.0369C121.865 28.8352 120.303 27.5426 118.754 27.4645V27.3224C120.175 26.9886 121.297 25.9943 121.297 24.2259C121.297 22.0597 119.734 20.4545 116.581 20.4545H111.013V35ZM113.648 32.7983V28.5369H116.553C118.179 28.5369 119.188 29.5312 119.188 30.831C119.188 31.9886 118.392 32.7983 116.482 32.7983H113.648ZM113.648 26.6406V22.6278H116.311C117.859 22.6278 118.662 23.4446 118.662 24.5668C118.662 25.8452 117.625 26.6406 116.254 26.6406H113.648ZM126.615 20.4545H124.044V35H126.615V20.4545ZM134.017 35.2131C137.213 35.2131 139.244 32.9616 139.244 29.5881C139.244 26.2074 137.213 23.9489 134.017 23.9489C130.821 23.9489 128.79 26.2074 128.79 29.5881C128.79 32.9616 130.821 35.2131 134.017 35.2131ZM134.031 33.1534C132.263 33.1534 131.396 31.5767 131.396 29.581C131.396 27.5852 132.263 25.9872 134.031 25.9872C135.771 25.9872 136.638 27.5852 136.638 29.581C136.638 31.5767 135.771 33.1534 134.031 33.1534ZM146.185 35.2131C148.926 35.2131 150.674 33.5866 150.858 31.2713H148.401C148.181 32.4432 147.336 33.1179 146.206 33.1179C144.601 33.1179 143.564 31.7756 143.564 29.5455C143.564 27.3438 144.623 26.0227 146.206 26.0227C147.442 26.0227 148.202 26.8182 148.401 27.8693H150.858C150.681 25.5043 148.834 23.9489 146.171 23.9489C142.975 23.9489 140.958 26.2571 140.958 29.5881C140.958 32.8906 142.925 35.2131 146.185 35.2131ZM152.969 35H155.54V31.3352L156.478 30.3338L159.816 35H162.891L158.417 28.7997L162.643 24.0909H159.638L155.718 28.473H155.54V20.4545H152.969V35ZM164.47 35H166.998V33.2812H167.147C167.552 34.0767 168.397 35.1918 170.272 35.1918C172.843 35.1918 174.768 33.1534 174.768 29.5597C174.768 25.9233 172.787 23.9489 170.265 23.9489C168.341 23.9489 167.538 25.1065 167.147 25.8949H167.041V20.4545H164.47V35ZM166.991 29.5455C166.991 27.429 167.9 26.0582 169.555 26.0582C171.267 26.0582 172.147 27.5142 172.147 29.5455C172.147 31.5909 171.252 33.0824 169.555 33.0824C167.914 33.0824 166.991 31.6619 166.991 29.5455ZM181.783 35.2131C184.326 35.2131 186.073 33.9702 186.528 32.0739L184.127 31.804C183.779 32.7273 182.927 33.2102 181.819 33.2102C180.157 33.2102 179.056 32.1165 179.035 30.2486H186.634V29.4602C186.634 25.6321 184.333 23.9489 181.648 23.9489C178.523 23.9489 176.485 26.2429 176.485 29.6094C176.485 33.0327 178.495 35.2131 181.783 35.2131ZM179.042 28.5156C179.12 27.1236 180.15 25.9517 181.684 25.9517C183.161 25.9517 184.156 27.0312 184.17 28.5156H179.042ZM191.949 35.2202C193.66 35.2202 194.683 34.4176 195.152 33.5014H195.237V35H197.708V27.6989C197.708 24.8153 195.358 23.9489 193.277 23.9489C190.983 23.9489 189.221 24.9716 188.653 26.9602L191.054 27.3011C191.309 26.5554 192.034 25.9162 193.291 25.9162C194.484 25.9162 195.137 26.527 195.137 27.5994V27.642C195.137 28.3807 194.363 28.4162 192.439 28.6222C190.322 28.8494 188.298 29.4815 188.298 31.9389C188.298 34.0838 189.868 35.2202 191.949 35.2202ZM192.616 33.331C191.544 33.331 190.777 32.8409 190.777 31.8963C190.777 30.9091 191.636 30.4972 192.787 30.3338C193.461 30.2415 194.811 30.071 195.145 29.8011V31.0866C195.145 32.3011 194.164 33.331 192.616 33.331ZM205.741 24.0909H203.589V21.4773H201.018V24.0909H199.47V26.0795H201.018V32.1449C201.004 34.1974 202.495 35.206 204.427 35.1491C205.159 35.1278 205.663 34.9858 205.94 34.8935L205.507 32.8835C205.365 32.919 205.074 32.983 204.754 32.983C204.108 32.983 203.589 32.7557 203.589 31.7188V26.0795H205.741V24.0909ZM216.357 26.9744C216.002 25.1278 214.525 23.9489 211.968 23.9489C209.34 23.9489 207.55 25.2415 207.558 27.2585C207.55 28.8494 208.531 29.9006 210.626 30.3338L212.487 30.7244C213.488 30.9446 213.957 31.3494 213.957 31.9673C213.957 32.7131 213.147 33.2741 211.925 33.2741C210.746 33.2741 209.979 32.7628 209.759 31.7827L207.252 32.0241C207.572 34.027 209.255 35.2131 211.933 35.2131C214.66 35.2131 216.585 33.7997 216.592 31.733C216.585 30.1776 215.583 29.2259 213.523 28.7784L211.663 28.3807C210.555 28.1321 210.114 27.7486 210.121 27.1165C210.114 26.3778 210.931 25.8665 212.004 25.8665C213.19 25.8665 213.815 26.5128 214.013 27.2301L216.357 26.9744Z" fill="white"/>
<path fill-rule="evenodd" clip-rule="evenodd" d="M238 19C238.552 19 239 19.4477 239 20V36C239 36.5523 238.552 37 238 37C237.448 37 237 36.5523 237 36V20C237 19.4477 237.448 19 238 19ZM234 21C234.552 21 235 21.4477 235 22V34C235 34.5523 234.552 35 234 35C233.448 35 233 34.5523 233 34V22C233 21.4477 233.448 21 234 21ZM230 25C230.552 25 231 25.4477 231 26V30C231 30.5523 230.552 31 230 31C229.448 31 229 30.5523 229 30V26C229 25.4477 229.448 25 230 25ZM243 22C243 21.4477 242.552 21 242 21C241.448 21 241 21.4477 241 22V34C241 34.5523 241.448 35 242 35C242.552 35 243 34.5523 243 34V22ZM247 26C247 25.4477 246.552 25 246 25C245.448 25 245 25.4477 245 26V30C245 30.5523 245.448 31 246 31C246.552 31 247 30.5523 247 30V26Z" fill="white"/>
<rect x="1.5" y="1.5" width="279" height="53" rx="26.5" stroke="url(#paint0_linear)" stroke-width="3"/>
<defs>
<linearGradient id="paint0_linear" x1="-3.00162e-06" y1="40.5391" x2="111.851" y2="-112.191" gradientUnits="userSpaceOnUse">
<stop stop-color="#5A0892"/>
<stop offset="0.25" stop-color="#BB41C7"/>
<stop offset="0.390625" stop-color="#C245CB"/>
<stop offset="0.614583" stop-color="#0D65EA"/>
<stop offset="1" stop-color="#03C1FF"/>
</linearGradient>
</defs>
</svg>
