<svg width="262" height="36" viewBox="0 0 262 36" fill="none" xmlns="http://www.w3.org/2000/svg">
<path fill-rule="evenodd" clip-rule="evenodd" d="M0 0H22.5287V7.61538H6.76856C3.03038 7.61538 0 4.58499 0 0.846817V0ZM1.51746 35.1532C1.51746 31.415 4.54785 28.3847 8.28602 28.3847H29.9993V36H1.51746V35.1532ZM22.5287 9.46155H11.3228L11.3228 9.46156C9.03184 9.46156 6.83475 10.3611 5.21482 11.9624C3.59489 13.5637 2.68483 15.7355 2.68482 18C2.68482 20.2646 3.59489 22.4363 5.21482 24.0376C6.83474 25.6389 9.03183 26.5385 11.3228 26.5385H30.1584C30.3506 26.5708 30.5295 26.6614 30.6692 26.7995C30.8469 26.9751 30.9467 27.2132 30.9467 27.4616C30.9467 27.7099 30.8469 27.9481 30.6692 28.1237C30.4916 28.2993 30.2506 28.3979 29.9994 28.3979V36C32.2903 36 34.4874 35.1004 36.1073 33.4992C37.7273 31.8979 38.6373 29.7261 38.6373 27.4616C38.6373 25.197 37.7273 23.0252 36.1073 21.424C34.5425 19.8772 32.4391 18.9851 30.2328 18.9262V18.9231H29.9994H11.3228L11.3228 18.9364C11.0715 18.9364 10.8306 18.8377 10.6529 18.6621C10.4753 18.4865 10.3755 18.2484 10.3755 18C10.3755 17.7517 10.4753 17.5135 10.6529 17.3379C10.8306 17.1623 11.0715 17.0637 11.3228 17.0637L11.3228 17.0769H22.5287C24.8196 17.0769 27.0167 16.1773 28.6367 14.5761C30.2566 12.9748 31.1667 10.803 31.1667 8.53846C31.1667 6.27392 30.2566 4.10213 28.6367 2.50086C27.0167 0.899586 24.8196 0 22.5287 0V7.65738C22.7651 7.65738 22.9918 7.75021 23.159 7.91545C23.3261 8.08068 23.4201 8.30479 23.4201 8.53846C23.4201 8.77214 23.3261 8.99624 23.159 9.16148C22.9918 9.32671 22.7651 9.41954 22.5287 9.41954L22.5287 9.46155Z" fill="white"/>
<path d="M64.4733 17.5158C65.7232 17.95 66.7023 18.6324 67.4105 19.5629C68.1188 20.4728 68.473 21.5791 68.473 22.8818C68.473 24.7842 67.7022 26.2524 66.1606 27.2863C64.6191 28.3203 62.3901 28.8372 59.4736 28.8372H47.662V7.12486H58.8487C61.6401 7.12486 63.765 7.64182 65.2232 8.67574C66.6814 9.68899 67.4105 11.0641 67.4105 12.8011C67.4105 13.835 67.1501 14.7655 66.6293 15.5927C66.1294 16.3991 65.4107 17.0402 64.4733 17.5158ZM53.7865 11.5604V15.7478H58.0362C60.1194 15.7478 61.161 15.0447 61.161 13.6386C61.161 12.2531 60.1194 11.5604 58.0362 11.5604H53.7865ZM58.9737 24.4017C61.1402 24.4017 62.2234 23.6676 62.2234 22.1994C62.2234 20.7313 61.1402 19.9972 58.9737 19.9972H53.7865V24.4017H58.9737Z" fill="white"/>
<path d="M70.8964 7.12486H77.0834V23.9674H87.5201V28.8372H70.8964V7.12486Z" fill="white"/>
<path d="M99.882 29.2715C97.5697 29.2715 95.4865 28.7855 93.6325 27.8136C91.7993 26.8417 90.3515 25.4976 89.2891 23.7813C88.2475 22.065 87.7267 20.1316 87.7267 17.981C87.7267 15.8305 88.2475 13.897 89.2891 12.1807C90.3515 10.4644 91.7993 9.12033 93.6325 8.14844C95.4865 7.17656 97.5697 6.69061 99.882 6.69061C102.194 6.69061 104.267 7.17656 106.1 8.14844C107.954 9.12033 109.402 10.4644 110.444 12.1807C111.506 13.897 112.037 15.8305 112.037 17.981C112.037 20.1316 111.506 22.065 110.444 23.7813C109.402 25.4976 107.954 26.8417 106.1 27.8136C104.267 28.7855 102.194 29.2715 99.882 29.2715ZM99.882 24.1846C100.986 24.1846 101.986 23.9261 102.882 23.4091C103.778 22.8922 104.486 22.1684 105.007 21.2379C105.527 20.2867 105.788 19.2011 105.788 17.981C105.788 16.761 105.527 15.6857 105.007 14.7552C104.486 13.804 103.778 13.0699 102.882 12.5529C101.986 12.036 100.986 11.7775 99.882 11.7775C98.7779 11.7775 97.778 12.036 96.8822 12.5529C95.9865 13.0699 95.2782 13.804 94.7574 14.7552C94.2366 15.6857 93.9762 16.761 93.9762 17.981C93.9762 19.2011 94.2366 20.2867 94.7574 21.2379C95.2782 22.1684 95.9865 22.8922 96.8822 23.4091C97.778 23.9261 98.7779 24.1846 99.882 24.1846Z" fill="white"/>
<path d="M125.402 29.2715C123.111 29.2715 121.048 28.7959 119.215 27.8447C117.403 26.8728 115.976 25.5287 114.934 23.8124C113.893 22.096 113.372 20.1523 113.372 17.981C113.372 15.8098 113.893 13.866 114.934 12.1497C115.976 10.4334 117.403 9.09965 119.215 8.14844C121.048 7.17656 123.111 6.69061 125.402 6.69061C127.402 6.69061 129.204 7.04215 130.808 7.74521C132.412 8.44828 133.745 9.46152 134.808 10.7849L130.87 14.321C129.454 12.6253 127.735 11.7775 125.715 11.7775C124.527 11.7775 123.465 12.036 122.527 12.5529C121.611 13.0699 120.892 13.804 120.371 14.7552C119.871 15.6857 119.621 16.761 119.621 17.981C119.621 19.2011 119.871 20.2867 120.371 21.2379C120.892 22.1684 121.611 22.8922 122.527 23.4091C123.465 23.9261 124.527 24.1846 125.715 24.1846C127.735 24.1846 129.454 23.3368 130.87 21.6411L134.808 25.1771C133.745 26.5006 132.412 27.5138 130.808 28.2169C129.204 28.9199 127.402 29.2715 125.402 29.2715Z" fill="white"/>
<path d="M145.222 20.9587L142.91 23.4091V28.8372H136.785V7.12486H142.91V16.151L151.378 7.12486H158.19L149.253 16.7403L158.658 28.8372H151.471L145.222 20.9587Z" fill="white"/>
<path d="M176.312 17.5158C177.562 17.95 178.541 18.6324 179.249 19.5629C179.958 20.4728 180.312 21.5791 180.312 22.8818C180.312 24.7842 179.541 26.2524 177.999 27.2863C176.458 28.3203 174.229 28.8372 171.312 28.8372H159.501V7.12486H170.687C173.479 7.12486 175.604 7.64182 177.062 8.67574C178.52 9.68899 179.249 11.0641 179.249 12.8011C179.249 13.835 178.989 14.7655 178.468 15.5927C177.968 16.3991 177.249 17.0402 176.312 17.5158ZM165.625 11.5604V15.7478H169.875C171.958 15.7478 173 15.0447 173 13.6386C173 12.2531 171.958 11.5604 169.875 11.5604H165.625ZM170.812 24.4017C172.979 24.4017 174.062 23.6676 174.062 22.1994C174.062 20.7313 172.979 19.9972 170.812 19.9972H165.625V24.4017H170.812Z" fill="white"/>
<path d="M200.296 24.0915V28.8372H182.735V7.12486H199.89V11.8706H188.86V15.5306H198.578V20.1213H188.86V24.0915H200.296Z" fill="white"/>
<path d="M217.604 24.6188H208.354L206.636 28.8372H200.324L209.979 7.12486H216.072L225.759 28.8372H219.322L217.604 24.6188ZM215.791 20.0902L212.979 13.1423L210.167 20.0902H215.791Z" fill="white"/>
<path d="M230.289 11.9946H223.571V7.12486H243.163V11.9946H236.476V28.8372H230.289V11.9946Z" fill="white"/>
<path d="M252.313 29.2715C250.542 29.2715 248.824 29.0543 247.157 28.6201C245.491 28.1858 244.137 27.6068 243.095 26.8831L245.126 22.3545C246.105 22.9956 247.241 23.5125 248.532 23.9054C249.824 24.2983 251.095 24.4947 252.344 24.4947C254.719 24.4947 255.907 23.9054 255.907 22.7267C255.907 22.1064 255.563 21.6515 254.875 21.362C254.209 21.0518 253.126 20.7313 251.626 20.4004C249.98 20.0489 248.605 19.6767 247.501 19.2838C246.397 18.8702 245.449 18.2188 244.657 17.3297C243.866 16.4405 243.47 15.2411 243.47 13.7316C243.47 12.4082 243.835 11.2192 244.564 10.1646C245.293 9.08931 246.376 8.2415 247.814 7.62114C249.272 7.00079 251.053 6.69061 253.157 6.69061C254.594 6.69061 256.011 6.85604 257.407 7.1869C258.802 7.49707 260.031 7.96234 261.094 8.58269L259.188 13.1423C257.104 12.0256 255.084 11.4673 253.126 11.4673C251.897 11.4673 251.001 11.6534 250.438 12.0256C249.876 12.3772 249.595 12.8424 249.595 13.4214C249.595 14.0004 249.928 14.4347 250.595 14.7242C251.261 15.0137 252.334 15.3135 253.813 15.6237C255.48 15.9752 256.855 16.3578 257.938 16.7713C259.042 17.1642 259.99 17.8053 260.781 18.6944C261.594 19.5629 262 20.7519 262 22.2615C262 23.5642 261.635 24.7429 260.906 25.7975C260.177 26.8521 259.084 27.6999 257.625 28.3409C256.167 28.9613 254.396 29.2715 252.313 29.2715Z" fill="white"/>
</svg>
