<svg width="39" height="36" viewBox="0 0 39 36" fill="none" xmlns="http://www.w3.org/2000/svg">
<path fill-rule="evenodd" clip-rule="evenodd" d="M0 0H22.5287V7.61538H6.76856C3.03038 7.61538 0 4.58499 0 0.846817V0ZM1.51746 35.1532C1.51746 31.415 4.54785 28.3847 8.28602 28.3847H29.9993V36H1.51746V35.1532ZM22.5287 9.46155H11.3228L11.3228 9.46156C9.03184 9.46156 6.83475 10.3611 5.21482 11.9624C3.59489 13.5637 2.68483 15.7355 2.68482 18C2.68482 20.2646 3.59489 22.4363 5.21482 24.0376C6.83474 25.6389 9.03183 26.5385 11.3228 26.5385H30.1584C30.3506 26.5708 30.5295 26.6614 30.6692 26.7995C30.8469 26.9751 30.9467 27.2132 30.9467 27.4616C30.9467 27.7099 30.8469 27.9481 30.6692 28.1237C30.4916 28.2993 30.2506 28.3979 29.9994 28.3979V36C32.2903 36 34.4874 35.1004 36.1073 33.4992C37.7273 31.8979 38.6373 29.7261 38.6373 27.4616C38.6373 25.197 37.7273 23.0252 36.1073 21.424C34.5425 19.8772 32.4391 18.9851 30.2328 18.9262V18.9231H29.9994H11.3228L11.3228 18.9364C11.0715 18.9364 10.8306 18.8377 10.6529 18.6621C10.4753 18.4865 10.3755 18.2484 10.3755 18C10.3755 17.7517 10.4753 17.5135 10.6529 17.3379C10.8306 17.1623 11.0715 17.0637 11.3228 17.0637L11.3228 17.0769H22.5287C24.8196 17.0769 27.0167 16.1773 28.6367 14.5761C30.2566 12.9748 31.1667 10.803 31.1667 8.53846C31.1667 6.27392 30.2566 4.10213 28.6367 2.50086C27.0167 0.899586 24.8196 0 22.5287 0V7.65738C22.7651 7.65738 22.9918 7.75021 23.159 7.91545C23.3261 8.08068 23.4201 8.30479 23.4201 8.53846C23.4201 8.77214 23.3261 8.99624 23.159 9.16148C22.9918 9.32671 22.7651 9.41954 22.5287 9.41954L22.5287 9.46155Z" fill="white"/>
</svg>
