<svg width="24" height="24" viewBox="0 0 24 24" fill="none" xmlns="http://www.w3.org/2000/svg">
<path fill-rule="evenodd" clip-rule="evenodd" d="M12 3C12.5523 3 13 3.44772 13 4V20C13 20.5523 12.5523 21 12 21C11.4477 21 11 20.5523 11 20V4C11 3.44772 11.4477 3 12 3ZM8 5C8.55228 5 9 5.44772 9 6V18C9 18.5523 8.55228 19 8 19C7.44772 19 7 18.5523 7 18V6C7 5.44772 7.44772 5 8 5ZM4 9C4.55228 9 5 9.44772 5 10V14C5 14.5523 4.55228 15 4 15C3.44772 15 3 14.5523 3 14V10C3 9.44772 3.44772 9 4 9ZM17 6C17 5.44772 16.5523 5 16 5C15.4477 5 15 5.44772 15 6V18C15 18.5523 15.4477 19 16 19C16.5523 19 17 18.5523 17 18V6ZM21 10C21 9.44772 20.5523 9 20 9C19.4477 9 19 9.44772 19 10V14C19 14.5523 19.4477 15 20 15C20.5523 15 21 14.5523 21 14V10Z" fill="white"/>
</svg>
